<mxfile host="app.diagrams.net" modified="2023-07-25T13:34:47.906Z" agent="Mozilla/5.0 (Windows NT 10.0; Win64; x64) AppleWebKit/537.36 (KHTML, like Gecko) Chrome/114.0.0.0 Safari/537.36" etag="8Nayutdv0anC3HY1deY7" version="21.6.5" type="device">
  <diagram name="Página-1" id="Xunk6MrNUst61_rrdIyP">
    <mxGraphModel dx="913" dy="455" grid="1" gridSize="10" guides="1" tooltips="1" connect="1" arrows="1" fold="1" page="1" pageScale="1" pageWidth="827" pageHeight="1169" math="0" shadow="0">
      <root>
        <mxCell id="0" />
        <mxCell id="1" parent="0" />
        <mxCell id="RVuFXaq4Ml5JrW6M0GzC-7" style="edgeStyle=orthogonalEdgeStyle;rounded=0;orthogonalLoop=1;jettySize=auto;html=1;entryX=0;entryY=0.5;entryDx=0;entryDy=0;endArrow=none;endFill=0;" edge="1" parent="1" source="RVuFXaq4Ml5JrW6M0GzC-1" target="RVuFXaq4Ml5JrW6M0GzC-5">
          <mxGeometry relative="1" as="geometry" />
        </mxCell>
        <mxCell id="RVuFXaq4Ml5JrW6M0GzC-1" value="loja" style="rounded=0;whiteSpace=wrap;html=1;" vertex="1" parent="1">
          <mxGeometry x="80" y="250" width="120" height="60" as="geometry" />
        </mxCell>
        <mxCell id="RVuFXaq4Ml5JrW6M0GzC-2" value="E-Commerce - SenaiShop&#xa;&#xa;&#xa;Uma Loja possui várias categorias&#xa;Uma categoria possui subcategorias&#xa;Um produto possui uma subcategoria&#xa;Um cliente efetua um pedido&#xa;Um pedido pode ter 1 ou vários produtos" style="text;whiteSpace=wrap;" vertex="1" parent="1">
          <mxGeometry x="80" y="50" width="250" height="140" as="geometry" />
        </mxCell>
        <mxCell id="RVuFXaq4Ml5JrW6M0GzC-16" style="edgeStyle=orthogonalEdgeStyle;rounded=0;orthogonalLoop=1;jettySize=auto;html=1;entryX=0;entryY=0.5;entryDx=0;entryDy=0;endArrow=none;endFill=0;" edge="1" parent="1" source="RVuFXaq4Ml5JrW6M0GzC-3" target="RVuFXaq4Ml5JrW6M0GzC-15">
          <mxGeometry relative="1" as="geometry" />
        </mxCell>
        <mxCell id="RVuFXaq4Ml5JrW6M0GzC-3" value="categorias" style="rounded=0;whiteSpace=wrap;html=1;" vertex="1" parent="1">
          <mxGeometry x="400" y="250" width="120" height="60" as="geometry" />
        </mxCell>
        <mxCell id="RVuFXaq4Ml5JrW6M0GzC-27" value="" style="edgeStyle=orthogonalEdgeStyle;rounded=0;orthogonalLoop=1;jettySize=auto;html=1;" edge="1" parent="1" source="RVuFXaq4Ml5JrW6M0GzC-4" target="RVuFXaq4Ml5JrW6M0GzC-26">
          <mxGeometry relative="1" as="geometry" />
        </mxCell>
        <mxCell id="RVuFXaq4Ml5JrW6M0GzC-4" value="produtos" style="rounded=0;whiteSpace=wrap;html=1;" vertex="1" parent="1">
          <mxGeometry x="80" y="460" width="120" height="60" as="geometry" />
        </mxCell>
        <mxCell id="RVuFXaq4Ml5JrW6M0GzC-8" style="edgeStyle=orthogonalEdgeStyle;rounded=0;orthogonalLoop=1;jettySize=auto;html=1;entryX=0;entryY=0.5;entryDx=0;entryDy=0;endArrow=none;endFill=0;" edge="1" parent="1" source="RVuFXaq4Ml5JrW6M0GzC-5" target="RVuFXaq4Ml5JrW6M0GzC-3">
          <mxGeometry relative="1" as="geometry" />
        </mxCell>
        <mxCell id="RVuFXaq4Ml5JrW6M0GzC-5" value="possui" style="rhombus;whiteSpace=wrap;html=1;" vertex="1" parent="1">
          <mxGeometry x="260" y="240" width="80" height="80" as="geometry" />
        </mxCell>
        <mxCell id="RVuFXaq4Ml5JrW6M0GzC-9" style="edgeStyle=orthogonalEdgeStyle;rounded=0;orthogonalLoop=1;jettySize=auto;html=1;entryX=0.5;entryY=1;entryDx=0;entryDy=0;endArrow=none;endFill=0;" edge="1" parent="1" source="RVuFXaq4Ml5JrW6M0GzC-6" target="RVuFXaq4Ml5JrW6M0GzC-1">
          <mxGeometry relative="1" as="geometry" />
        </mxCell>
        <mxCell id="RVuFXaq4Ml5JrW6M0GzC-10" style="edgeStyle=orthogonalEdgeStyle;rounded=0;orthogonalLoop=1;jettySize=auto;html=1;entryX=0.5;entryY=0;entryDx=0;entryDy=0;endArrow=none;endFill=0;" edge="1" parent="1" source="RVuFXaq4Ml5JrW6M0GzC-6" target="RVuFXaq4Ml5JrW6M0GzC-4">
          <mxGeometry relative="1" as="geometry" />
        </mxCell>
        <mxCell id="RVuFXaq4Ml5JrW6M0GzC-6" value="possui" style="rhombus;whiteSpace=wrap;html=1;" vertex="1" parent="1">
          <mxGeometry x="100" y="340" width="80" height="80" as="geometry" />
        </mxCell>
        <mxCell id="RVuFXaq4Ml5JrW6M0GzC-11" value="1" style="text;html=1;align=center;verticalAlign=middle;resizable=0;points=[];autosize=1;strokeColor=none;fillColor=none;" vertex="1" parent="1">
          <mxGeometry x="200" y="250" width="30" height="30" as="geometry" />
        </mxCell>
        <mxCell id="RVuFXaq4Ml5JrW6M0GzC-12" value="N" style="text;html=1;align=center;verticalAlign=middle;resizable=0;points=[];autosize=1;strokeColor=none;fillColor=none;" vertex="1" parent="1">
          <mxGeometry x="370" y="250" width="30" height="30" as="geometry" />
        </mxCell>
        <mxCell id="RVuFXaq4Ml5JrW6M0GzC-13" value="N" style="text;html=1;align=center;verticalAlign=middle;resizable=0;points=[];autosize=1;strokeColor=none;fillColor=none;" vertex="1" parent="1">
          <mxGeometry x="140" y="430" width="30" height="30" as="geometry" />
        </mxCell>
        <mxCell id="RVuFXaq4Ml5JrW6M0GzC-14" value="1" style="text;html=1;align=center;verticalAlign=middle;resizable=0;points=[];autosize=1;strokeColor=none;fillColor=none;" vertex="1" parent="1">
          <mxGeometry x="140" y="310" width="30" height="30" as="geometry" />
        </mxCell>
        <mxCell id="RVuFXaq4Ml5JrW6M0GzC-18" style="edgeStyle=orthogonalEdgeStyle;rounded=0;orthogonalLoop=1;jettySize=auto;html=1;entryX=-0.002;entryY=0.499;entryDx=0;entryDy=0;entryPerimeter=0;endArrow=none;endFill=0;" edge="1" parent="1" source="RVuFXaq4Ml5JrW6M0GzC-15" target="RVuFXaq4Ml5JrW6M0GzC-17">
          <mxGeometry relative="1" as="geometry" />
        </mxCell>
        <mxCell id="RVuFXaq4Ml5JrW6M0GzC-15" value="possui" style="rhombus;whiteSpace=wrap;html=1;" vertex="1" parent="1">
          <mxGeometry x="570" y="240" width="80" height="80" as="geometry" />
        </mxCell>
        <mxCell id="RVuFXaq4Ml5JrW6M0GzC-17" value="subcategorias" style="rounded=0;whiteSpace=wrap;html=1;" vertex="1" parent="1">
          <mxGeometry x="690" y="250" width="120" height="60" as="geometry" />
        </mxCell>
        <mxCell id="RVuFXaq4Ml5JrW6M0GzC-20" value="N" style="text;html=1;align=center;verticalAlign=middle;resizable=0;points=[];autosize=1;strokeColor=none;fillColor=none;" vertex="1" parent="1">
          <mxGeometry x="660" y="250" width="30" height="30" as="geometry" />
        </mxCell>
        <mxCell id="RVuFXaq4Ml5JrW6M0GzC-21" value="1" style="text;html=1;align=center;verticalAlign=middle;resizable=0;points=[];autosize=1;strokeColor=none;fillColor=none;" vertex="1" parent="1">
          <mxGeometry x="520" y="250" width="30" height="30" as="geometry" />
        </mxCell>
        <mxCell id="RVuFXaq4Ml5JrW6M0GzC-26" value="subcategoria" style="ellipse;whiteSpace=wrap;html=1;rounded=0;" vertex="1" parent="1">
          <mxGeometry x="100" y="590" width="80" height="50" as="geometry" />
        </mxCell>
      </root>
    </mxGraphModel>
  </diagram>
</mxfile>
